<svg width="27" height="27" viewBox="0 0 27 27" fill="none" xmlns="http://www.w3.org/2000/svg">
<path d="M14.6665 6.66602H11.9998V11.9993H6.6665V14.666H11.9998V19.9993H14.6665V14.666H19.9998V11.9993H14.6665V6.66602Z" fill="#545454"/>
<path d="M13.3333 0C5.98133 0 0 5.98133 0 13.3333C0 20.6853 5.98133 26.6667 13.3333 26.6667C20.6853 26.6667 26.6667 20.6853 26.6667 13.3333C26.6667 5.98133 20.6853 0 13.3333 0ZM13.3333 24C7.452 24 2.66667 19.2147 2.66667 13.3333C2.66667 7.452 7.452 2.66667 13.3333 2.66667C19.2147 2.66667 24 7.452 24 13.3333C24 19.2147 19.2147 24 13.3333 24Z" fill="#545454"/>
</svg>
