<svg width="34" height="23" viewBox="0 0 34 23" fill="none" xmlns="http://www.w3.org/2000/svg">
<path d="M3.1875 0C2.34212 0 1.53137 0.302901 0.933597 0.842068C0.335825 1.38123 0 2.1125 0 2.875V6.70833C0 7.47083 0.335825 8.2021 0.933597 8.74127C1.53137 9.28043 2.34212 9.58333 3.1875 9.58333H7.4375C8.28288 9.58333 9.09363 9.28043 9.6914 8.74127C10.2892 8.2021 10.625 7.47083 10.625 6.70833V2.875C10.625 2.1125 10.2892 1.38123 9.6914 0.842068C9.09363 0.302901 8.28288 0 7.4375 0H3.1875ZM2.125 2.875C2.125 2.62083 2.23694 2.37708 2.4362 2.19736C2.63546 2.01763 2.90571 1.91667 3.1875 1.91667H7.4375C7.71929 1.91667 7.98954 2.01763 8.1888 2.19736C8.38806 2.37708 8.5 2.62083 8.5 2.875V6.70833C8.5 6.9625 8.38806 7.20625 8.1888 7.38598C7.98954 7.5657 7.71929 7.66667 7.4375 7.66667H3.1875C2.90571 7.66667 2.63546 7.5657 2.4362 7.38598C2.23694 7.20625 2.125 6.9625 2.125 6.70833V2.875ZM15.9375 1.91667C15.6557 1.91667 15.3855 2.01763 15.1862 2.19736C14.9869 2.37708 14.875 2.62083 14.875 2.875C14.875 3.12917 14.9869 3.37292 15.1862 3.55264C15.3855 3.73237 15.6557 3.83333 15.9375 3.83333H32.9375C33.2193 3.83333 33.4895 3.73237 33.6888 3.55264C33.8881 3.37292 34 3.12917 34 2.875C34 2.62083 33.8881 2.37708 33.6888 2.19736C33.4895 2.01763 33.2193 1.91667 32.9375 1.91667H15.9375ZM15.9375 5.75C15.6557 5.75 15.3855 5.85097 15.1862 6.03069C14.9869 6.21041 14.875 6.45417 14.875 6.70833C14.875 6.9625 14.9869 7.20625 15.1862 7.38598C15.3855 7.5657 15.6557 7.66667 15.9375 7.66667H28.6875C28.9693 7.66667 29.2395 7.5657 29.4388 7.38598C29.6381 7.20625 29.75 6.9625 29.75 6.70833C29.75 6.45417 29.6381 6.21041 29.4388 6.03069C29.2395 5.85097 28.9693 5.75 28.6875 5.75H15.9375ZM3.1875 13.4167C2.34212 13.4167 1.53137 13.7196 0.933597 14.2587C0.335825 14.7979 0 15.5292 0 16.2917V20.125C0 20.8875 0.335825 21.6188 0.933597 22.1579C1.53137 22.6971 2.34212 23 3.1875 23H7.4375C8.28288 23 9.09363 22.6971 9.6914 22.1579C10.2892 21.6188 10.625 20.8875 10.625 20.125V16.2917C10.625 15.5292 10.2892 14.7979 9.6914 14.2587C9.09363 13.7196 8.28288 13.4167 7.4375 13.4167H3.1875ZM2.125 16.2917C2.125 16.0375 2.23694 15.7937 2.4362 15.614C2.63546 15.4343 2.90571 15.3333 3.1875 15.3333H7.4375C7.71929 15.3333 7.98954 15.4343 8.1888 15.614C8.38806 15.7937 8.5 16.0375 8.5 16.2917V20.125C8.5 20.3792 8.38806 20.6229 8.1888 20.8026C7.98954 20.9824 7.71929 21.0833 7.4375 21.0833H3.1875C2.90571 21.0833 2.63546 20.9824 2.4362 20.8026C2.23694 20.6229 2.125 20.3792 2.125 20.125V16.2917ZM15.9375 15.3333C15.6557 15.3333 15.3855 15.4343 15.1862 15.614C14.9869 15.7937 14.875 16.0375 14.875 16.2917C14.875 16.5458 14.9869 16.7896 15.1862 16.9693C15.3855 17.149 15.6557 17.25 15.9375 17.25H32.9375C33.2193 17.25 33.4895 17.149 33.6888 16.9693C33.8881 16.7896 34 16.5458 34 16.2917C34 16.0375 33.8881 15.7937 33.6888 15.614C33.4895 15.4343 33.2193 15.3333 32.9375 15.3333H15.9375ZM15.9375 19.1667C15.6557 19.1667 15.3855 19.2676 15.1862 19.4474C14.9869 19.6271 14.875 19.8708 14.875 20.125C14.875 20.3792 14.9869 20.6229 15.1862 20.8026C15.3855 20.9824 15.6557 21.0833 15.9375 21.0833H28.6875C28.9693 21.0833 29.2395 20.9824 29.4388 20.8026C29.6381 20.6229 29.75 20.3792 29.75 20.125C29.75 19.8708 29.6381 19.6271 29.4388 19.4474C29.2395 19.2676 28.9693 19.1667 28.6875 19.1667H15.9375Z" fill="#545454"/>
</svg>
