<svg width="25" height="25" viewBox="0 0 25 25" fill="none" xmlns="http://www.w3.org/2000/svg">
<path d="M10.6667 21.3333C13.0333 21.3328 15.3317 20.5406 17.196 19.0827L23.0573 24.944L24.9427 23.0587L19.0813 17.1973C20.54 15.3329 21.3328 13.0339 21.3333 10.6667C21.3333 4.78533 16.548 0 10.6667 0C4.78533 0 0 4.78533 0 10.6667C0 16.548 4.78533 21.3333 10.6667 21.3333ZM10.6667 2.66667C15.0787 2.66667 18.6667 6.25467 18.6667 10.6667C18.6667 15.0787 15.0787 18.6667 10.6667 18.6667C6.25467 18.6667 2.66667 15.0787 2.66667 10.6667C2.66667 6.25467 6.25467 2.66667 10.6667 2.66667Z" fill="#545454"/>
<path d="M12.5493 8.78112C13.0547 9.28779 13.3333 9.95712 13.3333 10.6665H16C16.0012 9.96569 15.8635 9.27165 15.5948 8.62444C15.3261 7.97723 14.9318 7.38969 14.4347 6.89579C12.416 4.87979 8.91602 4.87979 6.89868 6.89579L8.78135 8.78379C9.79468 7.77312 11.5413 7.77579 12.5493 8.78112Z" fill="#545454"/>
</svg>
