<svg width="114" height="62" viewBox="0 0 114 62" fill="none" xmlns="http://www.w3.org/2000/svg">
<path d="M4.26065 20.7195C-1.42022 26.2902 -1.42022 35.6029 4.26065 41.2826L20.7195 57.7403C26.2902 63.4199 35.6029 63.4199 41.2826 57.7403L57.7403 41.2826C63.4199 35.6029 63.4199 26.2902 57.7403 20.7195L41.2826 4.26065C35.6029 -1.42022 26.2902 -1.42022 20.7195 4.26065L4.26065 20.7195ZM38.2066 38.2066C34.2224 42.1787 27.7798 42.1787 23.8076 38.2066C19.8234 34.2224 19.8234 27.7798 23.8076 23.8076C27.7798 19.8234 34.2224 19.8234 38.2066 23.8076C42.1787 27.7798 42.1787 34.2224 38.2066 38.2066Z" fill="#9747FF"/>
<path d="M94.5714 12C84.7143 12 76.5714 19.3699 75.3143 28.9191H63.2143C62.2 26.3956 59.7357 24.6176 56.8571 24.6176C53.0714 24.6176 50 27.7004 50 31.5C50 35.2996 53.0714 38.3824 56.8571 38.3824C59.7357 38.3824 62.2 36.6044 63.2143 34.0809H75.3071C76.5714 43.6301 84.7143 51 94.5714 51C105.3 51 114 42.268 114 31.5C114 20.732 105.3 12 94.5714 12ZM103.714 33.364C103.714 33.6794 103.457 33.9375 103.143 33.9375H97V40.1029C97 40.4184 96.7429 40.6765 96.4286 40.6765H92.7143C92.4 40.6765 92.1429 40.4184 92.1429 40.1029V33.9375H86C85.6857 33.9375 85.4286 33.6794 85.4286 33.364V29.636C85.4286 29.3206 85.6857 29.0625 86 29.0625H92.1429V22.8971C92.1429 22.5816 92.4 22.3235 92.7143 22.3235H96.4286C96.7429 22.3235 97 22.5816 97 22.8971V29.0625H103.143C103.457 29.0625 103.714 29.3206 103.714 29.636V33.364Z" fill="#9747FF"/>
</svg>
