<svg width="61" height="62" viewBox="0 0 61 62" fill="none" xmlns="http://www.w3.org/2000/svg">
<path d="M21.4773 8.73047L13.0571 33.7596H29.8975L21.4773 8.73047ZM32.3642 41.0964L31.5176 38.5822H11.434L7.64563 49.8477C7.44291 50.4506 7.02166 50.9437 6.47454 51.2187C5.92743 51.4936 5.29927 51.5278 4.72825 51.3138C4.15724 51.0998 3.69014 50.655 3.42972 50.0774C3.1693 49.4998 3.13688 48.8366 3.3396 48.2338L18.9254 1.90492C19.778 -0.634972 23.1766 -0.634972 24.0293 1.90492L35.9424 37.3187L32.3642 41.0964ZM6.21131 55.8599C4.61253 56.2361 2.67269 55.4644 1.24445 54.6382C0.607984 54.2749 -0.238605 54.8697 0.0628778 55.5641C0.799836 57.2649 2.28898 59.2068 5.27031 59.599C8.25469 59.988 10.6483 58.4834 13.0358 56.9787C14.8112 55.8599 16.5835 54.7411 18.5965 54.4099C18.8553 54.3681 19.035 54.6928 18.9162 54.9436C18.1793 56.4997 17.8321 59.3482 19.5801 60.7886C22.1625 62.9169 29.4377 61.7274 31.2374 61.0715C31.3896 61.0548 31.5402 61.0257 31.6881 60.9847L37.261 59.5154C38.6997 59.1357 40.0135 58.35 41.0615 57.2424L59.0378 38.2671C60.3096 36.8815 61.0143 35.0235 60.9998 33.0942C60.9853 31.1648 60.2527 29.3189 58.9603 27.9548C57.6678 26.5907 55.9191 25.8179 54.0916 25.8032C52.2641 25.7885 50.5045 26.533 49.1924 27.8761L31.2192 46.8513C30.1707 47.9571 29.4266 49.3429 29.0662 50.8605L27.7628 56.3647C26.6847 56.9112 25.6006 57.0141 24.3155 56.7022C23.9318 56.6058 23.7674 56.1396 23.9288 55.7602C25.2382 52.6673 23.3502 50.0503 20.7921 48.9668C17.8839 47.729 14.0133 50.6226 10.767 53.0435C8.96424 54.3938 7.35633 55.593 6.21131 55.8599Z" fill="#545454"/>
</svg>
