<svg width="42" height="42" viewBox="0 0 42 42" fill="none" xmlns="http://www.w3.org/2000/svg">
<path d="M12 4.5C12 5.568 11.778 6.582 11.376 7.5H21C21.3978 7.5 21.7794 7.65804 22.0607 7.93934C22.342 8.22064 22.5 8.60218 22.5 9V15H21C19.4087 15 17.8826 15.6321 16.7574 16.7574C15.6321 17.8826 15 19.4087 15 21V22.5H9C8.60218 22.5 8.22064 22.342 7.93934 22.0607C7.65804 21.7794 7.5 21.3978 7.5 21V11.376C6.08498 11.995 4.51295 12.1606 3 11.85V21C3 22.5913 3.63214 24.1174 4.75736 25.2426C5.88258 26.3679 7.4087 27 9 27H15V33C15 34.5913 15.6321 36.1174 16.7574 37.2426C17.8826 38.3679 19.4087 39 21 39H30.15C29.8433 37.4869 30.0088 35.916 30.624 34.5H21C20.6022 34.5 20.2206 34.342 19.9393 34.0607C19.658 33.7794 19.5 33.3978 19.5 33V27H21C22.5913 27 24.1174 26.3679 25.2426 25.2426C26.3679 24.1174 27 22.5913 27 21V19.5H33C33.3978 19.5 33.7794 19.658 34.0607 19.9393C34.342 20.2206 34.5 20.6022 34.5 21V30.624C35.915 30.0048 37.4871 29.8392 39 30.15V21C39 19.4087 38.3679 17.8826 37.2426 16.7574C36.1174 15.6321 34.5913 15 33 15H27V9C27 7.4087 26.3679 5.88258 25.2426 4.75736C24.1174 3.63214 22.5913 3 21 3H11.85C11.949 3.486 12 3.987 12 4.5ZM22.5 19.5V21C22.5 21.3978 22.342 21.7794 22.0607 22.0607C21.7794 22.342 21.3978 22.5 21 22.5H19.5V21C19.5 20.6022 19.658 20.2206 19.9393 19.9393C20.2206 19.658 20.6022 19.5 21 19.5H22.5ZM9 4.5C9 5.69347 8.5259 6.83807 7.68198 7.68198C6.83807 8.5259 5.69347 9 4.5 9C3.30653 9 2.16193 8.5259 1.31802 7.68198C0.474106 6.83807 0 5.69347 0 4.5C0 3.30653 0.474106 2.16193 1.31802 1.31802C2.16193 0.474106 3.30653 0 4.5 0C5.69347 0 6.83807 0.474106 7.68198 1.31802C8.5259 2.16193 9 3.30653 9 4.5ZM42 37.5C42 38.6935 41.5259 39.8381 40.682 40.682C39.8381 41.5259 38.6935 42 37.5 42C36.3065 42 35.1619 41.5259 34.318 40.682C33.4741 39.8381 33 38.6935 33 37.5C33 36.3065 33.4741 35.1619 34.318 34.318C35.1619 33.4741 36.3065 33 37.5 33C38.6935 33 39.8381 33.4741 40.682 34.318C41.5259 35.1619 42 36.3065 42 37.5ZM42 4.5C42 5.69347 41.5259 6.83807 40.682 7.68198C39.8381 8.5259 38.6935 9 37.5 9C36.3065 9 35.1619 8.5259 34.318 7.68198C33.4741 6.83807 33 5.69347 33 4.5C33 3.30653 33.4741 2.16193 34.318 1.31802C35.1619 0.474106 36.3065 0 37.5 0C38.6935 0 39.8381 0.474106 40.682 1.31802C41.5259 2.16193 42 3.30653 42 4.5ZM9 37.5C9 38.6935 8.5259 39.8381 7.68198 40.682C6.83807 41.5259 5.69347 42 4.5 42C3.30653 42 2.16193 41.5259 1.31802 40.682C0.474106 39.8381 0 38.6935 0 37.5C0 36.3065 0.474106 35.1619 1.31802 34.318C2.16193 33.4741 3.30653 33 4.5 33C5.69347 33 6.83807 33.4741 7.68198 34.318C8.5259 35.1619 9 36.3065 9 37.5Z" fill="#545454"/>
</svg>
