<svg width="30" height="30" viewBox="0 0 30 30" fill="none" xmlns="http://www.w3.org/2000/svg">
<path d="M15 0C6.75 0 0 6.75 0 15C0 23.25 6.75 30 15 30C23.25 30 30 23.25 30 15C30 6.75 23.25 0 15 0ZM21.1071 15.75L16.8214 20.0357C16.6071 20.25 16.3929 20.3571 16.0714 20.3571C15.75 20.3571 15.5357 20.25 15.3214 20.0357C14.8929 19.6071 14.8929 18.9643 15.3214 18.5357L17.7857 16.0714H8.57143C7.92857 16.0714 7.5 15.6429 7.5 15C7.5 14.3571 7.92857 13.9286 8.57143 13.9286H17.7857L15.3214 11.4643C14.8929 11.0357 14.8929 10.3929 15.3214 9.96429C15.75 9.53571 16.3929 9.53571 16.8214 9.96429L21.1071 14.25C21.2143 14.3571 21.3214 14.4643 21.3214 14.5714C21.4286 14.7857 21.4286 15.1071 21.3214 15.4286C21.3214 15.5357 21.2143 15.6429 21.1071 15.75Z" fill="black"/>
</svg>
